# File created by Blade
# Date/Time:  Thu Sep 25 19:04:16 2014
# Frame Rate: 120.000 fps
#------------------------------------------------------
:FULLY-SPECIFIED
:DEGREES
1552
root 7.474773 16.290244 -8.189184 21.826144 25.098667 -22.426265
Spine 13.482559 -8.176255 -45.331625
Head 1.589343 -50.387436 -27.524116
LeftShoulder -4.274731 11.694800 21.833174
LeftArm 11.342039 -7.914803 -50.734767
LeftForeArm 19.757186 -0.000000 19.222702
LeftHand -39.435000 -0.000000 80.462427
LeftHandThumb1 -26.253704 0.000000 33.147579
RightShoulder -19.011935 20.212928 -52.534852
RightArm -10.831266 9.549131 12.268337
RightForeArm -20.944560 -0.000000 15.434884
RightHand -21.360627 -0.000000 -21.628537
RightHandThumb1 -24.326973 -0.000000 -32.862282
LeftUpLeg -116.746987 47.835934 14.224789
LeftLeg 113.789083 -0.000000 -0.000000
LeftFoot -24.300481 -23.205209 -15.995230
LeftToeBase 0.550739 -0.000000 -0.000000
RightUpLeg -8.035733 -38.251708 -29.467906
RightLeg 4.035518 -0.000000 -0.000000
RightFoot 2.865580 -13.497651 44.944920
RightToeBase 4.915391 -0.000000 -0.000000
1553
root 7.476478 16.285475 -8.186107 21.798641 25.080778 -22.441025
Spine 13.464813 -8.249622 -45.358335
Head 1.580792 -50.350865 -27.427982
LeftShoulder -4.329332 11.723703 21.859290
LeftArm 11.316527 -7.889420 -50.772127
LeftForeArm 19.737809 -0.000000 19.163828
LeftHand -39.458164 -0.000000 80.591605
LeftHandThumb1 -26.253704 0.000000 33.147579
RightShoulder -19.014656 20.180160 -52.455392
RightArm -10.854835 9.590214 12.276592
RightForeArm -21.010473 0.000000 15.331787
RightHand -21.329801 -0.000000 -21.486347
RightHandThumb1 -24.326973 -0.000000 -32.862282
LeftUpLeg -116.701088 47.850761 14.284220
LeftLeg 113.816382 -0.000000 -0.000000
LeftFoot -24.313345 -23.213468 -16.033601
LeftToeBase 0.582860 -0.000000 -0.000000
RightUpLeg -8.010490 -38.235666 -29.477985
RightLeg 4.025302 -0.000000 -0.000000
RightFoot 2.874229 -13.490542 44.947324
RightToeBase 4.899293 -0.000000 -0.000000
1554
root 7.478372 16.280055 -8.182060 21.756456 25.054082 -22.461571
Spine 13.450695 -8.291441 -45.368543
Head 1.588760 -50.326623 -27.376546
LeftShoulder -4.350525 11.791184 21.863793
LeftArm 11.300228 -7.947998 -50.810673
LeftForeArm 19.745829 -0.000000 19.134458
LeftHand -39.460831 0.000000 80.707937
LeftHandThumb1 -26.253704 0.000000 33.147579
RightShoulder -19.046588 20.150078 -52.422911
RightArm -10.890463 9.540950 12.313899
RightForeArm -21.029820 0.000000 15.272834
RightHand -21.347720 -0.000000 -21.321153
RightHandThumb1 -24.326973 -0.000000 -32.862282
LeftUpLeg -116.617680 47.871997 14.378981
LeftLeg 113.848031 -0.000000 -0.000000
LeftFoot -24.363603 -23.193366 -16.034057
LeftToeBase 0.602301 -0.000000 -0.000000
RightUpLeg -7.977531 -38.198077 -29.494666
RightLeg 4.018294 -0.000000 -0.000000
RightFoot 2.877687 -13.470845 44.985008
RightToeBase 4.915551 -0.000000 -0.000000
1555
root 7.480463 16.274273 -8.180239 21.725863 25.021573 -22.479513
Spine 13.423490 -8.336836 -45.383610
Head 1.621463 -50.302212 -27.335089
LeftShoulder -4.360929 11.801686 21.904848
LeftArm 11.218757 -7.997269 -50.884510
LeftForeArm 19.790396 0.000000 19.126165
LeftHand -39.467244 -0.000000 80.767945
LeftHandThumb1 -26.253704 0.000000 33.147579
RightShoulder -19.071115 20.125179 -52.362967
RightArm -10.908482 9.457381 12.315906
RightForeArm -20.968745 0.000000 15.224262
RightHand -21.489953 0.000000 -21.121451
RightHandThumb1 -24.326973 -0.000000 -32.862282
LeftUpLeg -116.544113 47.893940 14.476752
LeftLeg 113.880585 -0.000000 -0.000000
LeftFoot -24.370319 -23.184649 -16.045010
LeftToeBase 0.511704 -0.000000 -0.000000
RightUpLeg -7.972708 -38.144120 -29.509114
RightLeg 4.037348 -0.000000 -0.000000
RightFoot 2.851883 -13.472181 45.049887
RightToeBase 4.920804 -0.000000 -0.000000
1556
root 7.482779 16.268278 -8.178593 21.692875 24.979106 -22.508924
Spine 13.383429 -8.382336 -45.380982
Head 1.641111 -50.247158 -27.284049
LeftShoulder -4.370764 11.831840 21.925321
LeftArm 11.139361 -8.105021 -50.973305
LeftForeArm 19.909644 0.000000 19.142541
LeftHand -39.481858 -0.000000 80.784290
LeftHandThumb1 -26.253704 0.000000 33.147579
RightShoulder -19.087401 20.101684 -52.340285
RightArm -10.960362 9.435421 12.331300
RightForeArm -21.010211 0.000000 15.183256
RightHand -21.506719 -0.000000 -20.915593
RightHandThumb1 -24.326973 -0.000000 -32.862282
LeftUpLeg -116.458854 47.920934 14.593849
LeftLeg 113.916696 -0.000000 -0.000000
LeftFoot -24.415889 -23.164803 -16.076113
LeftToeBase 0.583671 -0.000000 -0.000000
RightUpLeg -7.980418 -38.075327 -29.510199
RightLeg 4.054423 -0.000000 -0.000000
RightFoot 2.833078 -13.473084 45.080595
RightToeBase 4.941996 -0.000000 -0.000000
1557
root 7.485935 16.261249 -8.178309 21.667052 24.918395 -22.545484
Spine 13.323998 -8.426065 -45.366926
Head 1.647415 -50.180799 -27.247463
LeftShoulder -4.384217 11.847412 21.943961
LeftArm 11.043545 -8.109813 -51.034521
LeftForeArm 19.848354 -0.000000 19.163820
LeftHand -39.503373 0.000000 80.719475
LeftHandThumb1 -26.253704 0.000000 33.147579
RightShoulder -19.099824 20.069852 -52.318186
RightArm -11.060108 9.363984 12.342159
RightForeArm -21.025517 -0.000000 15.246107
RightHand -21.585576 -0.000000 -20.692467
RightHandThumb1 -24.326973 -0.000000 -32.862282
LeftUpLeg -116.384774 47.970818 14.712349
LeftLeg 113.965483 -0.000000 -0.000000
LeftFoot -24.416897 -23.150196 -16.101038
LeftToeBase 0.502828 -0.000000 -0.000000
RightUpLeg -8.023783 -38.011318 -29.497319
RightLeg 4.085027 -0.000000 -0.000000
RightFoot 2.833656 -13.458078 45.104356
RightToeBase 4.932489 -0.000000 -0.000000
1558
root 7.489921 16.255887 -8.178224 21.626827 24.824193 -22.594951
Spine 13.252574 -8.455719 -45.356445
Head 1.659505 -50.089968 -27.227604
LeftShoulder -4.430245 11.900619 21.939227
LeftArm 11.014309 -8.175908 -51.094521
LeftForeArm 19.889903 -0.000000 19.121099
LeftHand -39.462651 -0.000000 80.849999
LeftHandThumb1 -26.253704 0.000000 33.147579
RightShoulder -19.078079 20.052934 -52.311762
RightArm -11.206394 9.445636 12.350017
RightForeArm -21.156069 -0.000000 15.291829
RightHand -21.558977 -0.000000 -20.565981
RightHandThumb1 -24.326973 -0.000000 -32.862282
LeftUpLeg -116.274322 48.048140 14.854945
LeftLeg 114.012071 -0.000000 -0.000000
LeftFoot -24.436308 -23.134484 -16.121290
LeftToeBase 0.389012 -0.000000 -0.000000
RightUpLeg -8.085495 -37.908463 -29.468793
RightLeg 4.109899 -0.000000 -0.000000
RightFoot 2.838906 -13.473258 45.113722
RightToeBase 4.952276 -0.000000 -0.000000
1559
root 7.493394 16.248874 -8.174648 21.562959 24.742735 -22.652707
Spine 13.204358 -8.455233 -45.338999
Head 1.618535 -49.989795 -27.109235
LeftShoulder -4.465235 11.952607 21.945107
LeftArm 11.001537 -8.247807 -51.166703
LeftForeArm 19.903591 -0.000000 19.085121
LeftHand -39.464354 0.000000 80.951742
LeftHandThumb1 -26.253704 0.000000 33.147579
RightShoulder -19.071582 20.027393 -52.286920
RightArm -11.344148 9.394662 12.358557
RightForeArm -21.162176 -0.000000 15.336899
RightHand -21.608483 -0.000000 -20.590920
RightHandThumb1 -24.326973 -0.000000 -32.862282
LeftUpLeg -116.172915 48.111426 14.971535
LeftLeg 114.069589 -0.000000 -0.000000
LeftFoot -24.561438 -23.047966 -16.126605
LeftToeBase 0.580625 -0.000000 -0.000000
RightUpLeg -8.098964 -37.840039 -29.444496
RightLeg 4.103619 -0.000000 -0.000000
RightFoot 2.853949 -13.471939 45.104307
RightToeBase 4.979237 -0.000000 -0.000000
